PathFileType	4	(X/Y/Z)	C:\Users\dbl\Desktop\LZH\BX\Trimmed_bx_n_10_901.trc
DataRate	CameraRate	NumFrames	NumMarkers	Units	OrigDataRate	OrigDataStartFrame	OrigNumFrames
50.00	50.00	      4	43	mm	50.00	949	      1518
Frame#	Time	Top.Head			R.Acromium			L.Acromium			Sternum			R.ASIS			L.ASIS			V.Sacral			R.Thigh.Upper			R.Thigh.Front			R.Thigh.Rear			R.Knee.Lat			R.Knee.Med			R.Shank.Upper			R.Shank.Front			R.Shank.Rear			R.Ankle.Lat			R.Midfoot.Lat			R.Toe.Lat			R.Toe.Tip			R.Toe.Med			R.Ankle.Med			R.Midfoot.Sup			R.Heel			L.Thigh.Upper			L.Thigh.Front			L.Thigh.Rear			L.Knee.Lat			L.Knee.Med			L.Shank.Upper			L.Shank.Front			L.Shank.Rear			L.Ankle.Lat			L.Midfoot.Lat			L.Toe.Lat			L.Toe.Tip			L.Toe.Med			L.Ankle.Med			L.Midfoot.Sup			L.Heel			origin1 front left			origin2 front right			origin 3 back right			origin 4 back leftt			
		X1	Y1	Z1	X2	Y2	Z2	X3	Y3	Z3	X4	Y4	Z4	X5	Y5	Z5	X6	Y6	Z6	X7	Y7	Z7	X8	Y8	Z8	X9	Y9	Z9	X10	Y10	Z10	X11	Y11	Z11	X12	Y12	Z12	X13	Y13	Z13	X14	Y14	Z14	X15	Y15	Z15	X16	Y16	Z16	X17	Y17	Z17	X18	Y18	Z18	X19	Y19	Z19	X20	Y20	Z20	X21	Y21	Z21	X22	Y22	Z22	X23	Y23	Z23	X24	Y24	Z24	X25	Y25	Z25	X26	Y26	Z26	X27	Y27	Z27	X28	Y28	Z28	X29	Y29	Z29	X30	Y30	Z30	X31	Y31	Z31	X32	Y32	Z32	X33	Y33	Z33	X34	Y34	Z34	X35	Y35	Z35	X36	Y36	Z36	X37	Y37	Z37	X38	Y38	Z38	X39	Y39	Z39	X40	Y40	Z40	X41	Y41	Z41	X42	Y42	Z42	X43	Y43	Z43	

949	18.960	-524.48065	250.26534	1805.31580	-519.40503	77.23474	1521.54114	-505.51031	430.19687	1518.73059	-485.94159	254.51065	1315.89221	-571.19739	132.32040	1031.12354	-565.51459	359.19153	1037.23914	-769.96649	242.00067	1064.15820	-646.28094	79.28764	834.81940	-559.60657	141.64261	808.69037	-669.09619	96.17047	722.20923	-678.90247	114.71788	606.58057	-657.90710	223.04047	562.44165	-706.32501	114.45971	538.63342	-628.57544	166.15810	527.39771	-712.20282	107.17377	486.79041	-688.07623	144.57388	211.14635	-607.56622	89.67499	164.46478	-558.94073	71.36381	162.13031	-480.98566	116.62035	156.86627	-530.06183	165.98729	165.98036	-642.73291	221.79878	221.68924	-596.36145	200.62906	174.51628	-723.56635	210.45747	167.56760	-656.44403	436.89273	858.17578	-569.86334	391.39310	818.59814	-671.32745	427.30978	742.49738	-678.37701	411.01047	606.28076	-652.89069	309.26175	570.14917	-691.18610	414.28510	559.91113	-632.16833	358.75168	538.49316	-739.51282	418.04901	493.85739	-673.28711	415.35529	214.64572	-572.31451	458.59229	163.88623	-533.54279	467.70087	156.41805	-470.65863	413.10443	163.56461	-519.15710	377.18567	178.23029	-642.98724	324.65002	209.78831	-590.66083	340.79709	172.69217	-728.87085	347.38452	160.07373	-443.53156	448.86377	146.81117	-450.47726	74.96944	143.83205	-806.26898	82.41711	142.17072	-799.12756	456.98355	144.45331	
950	18.980	-536.04736	250.26639	1809.30750	-527.10938	77.03040	1524.90381	-513.31250	430.33478	1522.76160	-487.39426	254.73938	1320.42163	-566.44098	132.56245	1031.43372	-561.47699	358.93759	1037.47632	-765.49524	241.29541	1063.59436	-641.54388	78.97099	834.72919	-555.36273	141.90883	808.38892	-665.25836	96.03471	722.45490	-676.06854	114.47263	606.81586	-655.55731	222.93297	562.56531	-703.95697	114.20671	538.86145	-626.30743	166.24303	527.37366	-710.21613	107.01460	487.02246	-687.86963	144.60385	211.28616	-607.51654	89.76323	164.48843	-558.92078	71.38856	162.13077	-480.99646	116.69067	156.87408	-530.04425	166.07948	165.81322	-642.39069	222.06125	221.80252	-596.39001	200.76071	174.40036	-723.57813	210.42593	167.58566	-652.55328	436.71411	858.20905	-566.16779	391.31079	818.44806	-668.12701	427.02676	742.68304	-675.89893	410.70462	606.46814	-650.42114	308.96747	570.20038	-688.88971	414.00781	560.13727	-629.95605	358.47647	538.37952	-737.61346	417.70224	494.37192	-673.11932	415.17078	214.75999	-572.30304	458.57523	163.91306	-533.55048	467.67993	156.44827	-470.61853	413.06033	163.51649	-519.08319	377.06781	178.13628	-642.72748	324.37079	209.74081	-590.56140	340.70618	172.68518	-728.74963	347.26041	160.13142	-443.53067	448.92862	146.91879	-450.46014	74.95969	143.82625	-806.29150	82.42441	142.21507	-799.17499	456.92758	144.43584	
951	19.000	-547.05249	250.13126	1812.74377	-534.34589	76.86292	1527.84338	-520.90802	430.44922	1526.27014	-488.85437	254.93173	1324.57300	-561.84924	132.66280	1031.63940	-557.45160	358.73663	1037.72522	-761.18579	240.68616	1062.95325	-636.94568	78.64191	834.61755	-551.23590	142.15187	808.11133	-661.53186	95.89736	722.69281	-673.28809	114.21245	607.05310	-653.23907	222.84407	562.69788	-701.65118	113.95945	539.08173	-624.09698	166.28651	527.28326	-708.23645	106.86216	487.24365	-687.62683	144.55428	211.51303	-607.46289	89.85930	164.51076	-558.89691	71.42252	162.12122	-481.01224	116.76502	156.87978	-530.00275	166.21002	165.62138	-642.00647	222.31743	221.96521	-596.44568	200.81656	174.30157	-723.59790	210.38152	167.61530	-648.58374	436.56702	858.22900	-562.41681	391.15192	818.29565	-664.86462	426.69754	742.84015	-673.36499	410.34372	606.65021	-647.86554	308.66266	570.24756	-686.52106	413.73691	560.34308	-627.68378	358.19257	538.31561	-735.65222	417.36880	494.86810	-672.88184	414.98950	214.87675	-572.29736	458.56024	163.93489	-533.55078	467.64944	156.48235	-470.57480	413.02948	163.47926	-518.97308	376.88785	178.01433	-642.44263	324.04379	209.72296	-590.47870	340.62857	172.66103	-728.60284	347.17282	160.27345	-443.54172	448.94949	146.97617	-450.44489	74.94567	143.82741	-806.31580	82.42605	142.25941	-799.20160	456.91074	144.45830	
952	19.020	-557.48901	249.85304	1815.69055	-541.10925	76.72647	1530.39807	-528.28461	430.54584	1529.23584	-490.30917	255.05612	1328.35864	-557.45819	132.61528	1031.80103	-553.44531	358.59680	1038.05420	-757.08887	240.19113	1062.22229	-632.46759	78.31059	834.49084	-547.20447	142.35207	807.86957	-657.89355	95.75221	722.91644	-670.55054	113.94447	607.27338	-650.92108	222.77473	562.86774	-699.37494	113.74345	539.29468	-621.92572	166.26851	527.12372	-706.24219	106.72419	487.46957	-687.35553	144.45169	211.78613	-607.40784	89.95794	164.53442	-558.87054	71.46721	162.10721	-481.01981	116.83234	156.87326	-529.93640	166.37572	165.41685	-641.62701	222.51714	222.10727	-596.50867	200.82115	174.22514	-723.62250	210.32719	167.65909	-644.51849	436.44394	858.23242	-558.59583	390.91431	818.14722	-661.50494	426.33395	742.96082	-670.75873	409.94241	606.81952	-645.21429	308.36627	570.30383	-684.07898	413.49063	560.53760	-625.34546	357.90823	538.29675	-733.61597	417.06116	495.34781	-672.58472	414.81546	214.97742	-572.29248	458.54474	163.95285	-533.53571	467.60422	156.52354	-470.52179	413.02130	163.45642	-518.83185	376.66620	177.88184	-642.13153	323.67285	209.72745	-590.43280	340.54941	172.58151	-728.45087	347.12900	160.48372	-443.54330	448.93005	146.94872	-450.43658	74.93247	143.83592	-806.32800	82.42192	142.28996	-799.20349	456.91962	144.49428	
